<svg width="125" height="84" viewBox="0 0 125 84" fill="none" xmlns="http://www.w3.org/2000/svg">
<path d="M5.21752 83.9874C4.20452 83.9874 3.22205 83.8531 2.27008 83.585C1.3303 83.3045 0.573634 82.9449 0 82.506L1.00689 80.2747C1.5561 80.6771 2.20904 81.0001 2.96575 81.244C3.72245 81.488 4.47912 81.6098 5.23582 81.6098C6.07795 81.6098 6.70039 81.488 7.10315 81.244C7.50591 80.988 7.70728 80.6526 7.70728 80.2381C7.70728 79.9334 7.58536 79.6832 7.34114 79.4883C7.10937 79.2809 6.80401 79.1163 6.42579 78.9945C6.05964 78.8727 5.55924 78.7384 4.9246 78.5921C3.94821 78.3606 3.14882 78.1287 2.52638 77.8971C1.90394 77.6656 1.36692 77.2936 0.915354 76.7815C0.475984 76.2694 0.256298 75.5865 0.256298 74.7331C0.256298 73.9895 0.457677 73.3186 0.860432 72.7213C1.26319 72.1116 1.86732 71.6302 2.67283 71.2765C3.49054 70.9228 4.48523 70.7461 5.65689 70.7461C6.47448 70.7461 7.27414 70.8438 8.05512 71.0387C8.8361 71.2337 9.51968 71.5142 10.1055 71.88L9.19016 74.1296C8.00642 73.4591 6.82232 73.1237 5.63858 73.1237C4.80865 73.1237 4.19232 73.2579 3.78957 73.526C3.399 73.7942 3.20374 74.1479 3.20374 74.5868C3.20374 75.0257 3.42954 75.3549 3.8811 75.5744C4.34489 75.7818 5.04664 75.9888 5.98642 76.1962C6.96292 76.4278 7.7622 76.6597 8.38465 76.8912C9.00709 77.1228 9.53799 77.4885 9.97736 77.9886C10.4288 78.4886 10.6547 79.1653 10.6547 80.0187C10.6547 80.7502 10.4471 81.4207 10.0323 82.0305C9.62953 82.6278 9.01917 83.1033 8.20157 83.457C7.38398 83.8107 6.38917 83.9874 5.21752 83.9874ZM22.0362 81.0246H16.0864L14.9514 83.7679H11.9124L17.6242 70.9656H20.5534L26.2835 83.7679H23.1713L22.0362 81.0246ZM21.1026 78.775L19.0705 73.8735L17.0384 78.775H21.1026ZM31.494 73.3431V76.7266H37.4255V79.1042H31.494V83.7679H28.5283V70.9656H38.2127V73.3431H31.494ZM51.0585 81.3903V83.7679H41.136V70.9656H50.8205V73.3431H44.0835V76.1231H50.0333V78.4275H44.0835V81.3903H51.0585ZM66.0867 70.9656V83.7679H63.121V78.519H57.2993V83.7679H54.3336V70.9656H57.2993V76.0134H63.121V70.9656H66.0867ZM76.2399 83.9874C74.9097 83.9874 73.7076 83.701 72.6334 83.1278C71.5716 82.5546 70.7356 81.7682 70.1253 80.7685C69.5274 79.7564 69.2282 78.6225 69.2282 77.3667C69.2282 76.111 69.5274 74.9829 70.1253 73.9833C70.7356 72.9711 71.5716 72.1789 72.6334 71.6057C73.7076 71.0325 74.9097 70.7461 76.2399 70.7461C77.5704 70.7461 78.7662 71.0325 79.828 71.6057C80.8899 72.1789 81.7261 72.9711 82.3361 73.9833C82.9465 74.9829 83.2515 76.111 83.2515 77.3667C83.2515 78.6225 82.9465 79.7564 82.3361 80.7685C81.7261 81.7682 80.8899 82.5546 79.828 83.1278C78.7662 83.701 77.5704 83.9874 76.2399 83.9874ZM76.2399 81.4635C76.9967 81.4635 77.6803 81.2927 78.2903 80.9514C78.9006 80.5977 79.3766 80.1101 79.7182 79.4883C80.0723 78.8664 80.2491 78.1594 80.2491 77.3667C80.2491 76.5741 80.0723 75.867 79.7182 75.2452C79.3766 74.6234 78.9006 74.1416 78.2903 73.8004C77.6803 73.4467 76.9967 73.27 76.2399 73.27C75.4834 73.27 74.7998 73.4467 74.1895 73.8004C73.5795 74.1416 73.0973 74.6234 72.7432 75.2452C72.4016 75.867 72.2306 76.5741 72.2306 77.3667C72.2306 78.1594 72.4016 78.8664 72.7432 79.4883C73.0973 80.1101 73.5795 80.5977 74.1895 80.9514C74.7998 81.2927 75.4834 81.4635 76.2399 81.4635ZM92.0894 83.9874C90.2587 83.9874 88.8307 83.4815 87.8055 82.4694C86.7924 81.4573 86.2861 80.0124 86.2861 78.1349V70.9656H89.2518V78.0251C89.2518 80.3175 90.2038 81.4635 92.1077 81.4635C93.0351 81.4635 93.7433 81.1892 94.2313 80.6405C94.7194 80.0797 94.9636 79.2077 94.9636 78.0251V70.9656H97.8927V78.1349C97.8927 80.0124 97.3801 81.4573 96.3549 82.4694C95.3418 83.4815 93.9201 83.9874 92.0894 83.9874ZM105.949 83.9874C104.937 83.9874 103.954 83.8531 103.002 83.585C102.062 83.3045 101.306 82.9449 100.732 82.506L101.739 80.2747C102.288 80.6771 102.941 81.0001 103.698 81.244C104.454 81.488 105.211 81.6098 105.968 81.6098C106.81 81.6098 107.432 81.488 107.835 81.244C108.238 80.988 108.439 80.6526 108.439 80.2381C108.439 79.9334 108.317 79.6832 108.073 79.4883C107.841 79.2809 107.536 79.1163 107.158 78.9945C106.791 78.8727 106.291 78.7384 105.656 78.5921C104.68 78.3606 103.881 78.1287 103.258 77.8971C102.636 77.6656 102.099 77.2936 101.647 76.7815C101.208 76.2694 100.988 75.5865 100.988 74.7331C100.988 73.9895 101.189 73.3186 101.592 72.7213C101.995 72.1116 102.599 71.6302 103.405 71.2765C104.223 70.9228 105.217 70.7461 106.389 70.7461C107.207 70.7461 108.006 70.8438 108.787 71.0387C109.568 71.2337 110.251 71.5142 110.837 71.88L109.922 74.1296C108.738 73.4591 107.554 73.1237 106.37 73.1237C105.541 73.1237 104.924 73.2579 104.521 73.526C104.131 73.7942 103.936 74.1479 103.936 74.5868C103.936 75.0257 104.161 75.3549 104.613 75.5744C105.077 75.7818 105.779 75.9888 106.718 76.1962C107.695 76.4278 108.494 76.6597 109.116 76.8912C109.739 77.1228 110.27 77.4885 110.709 77.9886C111.161 78.4886 111.387 79.1653 111.387 80.0187C111.387 80.7502 111.179 81.4207 110.764 82.0305C110.361 82.6278 109.751 83.1033 108.933 83.457C108.116 83.8107 107.121 83.9874 105.949 83.9874ZM124.251 81.3903V83.7679H114.328V70.9656H124.013V73.3431H117.276V76.1231H123.226V78.4275H117.276V81.3903H124.251Z" fill="white"/>
<path fill-rule="evenodd" clip-rule="evenodd" d="M18.5273 43.9699L62.5406 0L62.5453 0.00470263L62.5456 0.00438243L81.4648 18.8521V7.37229H88.4648V25.8256L106.683 43.9744L100.987 49.6646L62.5489 11.3722L24.2232 49.6602L18.5273 43.9699ZM55.875 35.4856H69.4222V58.8956H55.875V35.4856Z" fill="white"/>
</svg>
